ffmpeg started on 2025-06-06 at 17:42:15
Report written to "D:\Convert\FFMetrics\reports\psnr_report-6.txt"
Log level: 32
Command line:
ffmpeg -hide_banner -nostdin -i "G:\\\xc0\xed\xe8\xec\xe5\\\xce\xed\xe3\xee\xe8\xed\xe3\xe8\\!_36_\xce\xf1\xe5\xed\xfc_2024\\DreamCast\\\xcf\xee\xe2\xe5\xeb\xe8\xf2\xe5\xeb\xfc \xe4\xe5\xec\xee\xed\xee\xe2 2099\\[DC] Maou 2099 - 03_Telegram_HEVC.mkv" -i "G:\\\xc0\xed\xe8\xec\xe5\\\xce\xed\xe3\xee\xe8\xed\xe3\xe8\\!_36_\xce\xf1\xe5\xed\xfc_2024\\DreamCast\\\xcf\xee\xe2\xe5\xeb\xe8\xf2\xe5\xeb\xfc \xe4\xe5\xec\xee\xed\xee\xe2 2099\\[DC] Maou 2099 - 03_Telegram.mp4" -lavfi "[0:v]settb=AVTB,setpts=PTS-STARTPTS,format=pix_fmts=yuv420p10,fps=24000/1001,scale=1920:1080:flags=bicubic[main];[1:v]settb=AVTB,setpts=PTS-STARTPTS,format=pix_fmts=yuv420p,fps=24000/1001,scale=1920:1080:flags=bicubic[ref];[main][ref]psnr=eof_action=endall:stats_file='D\\:/Convert/FFMetrics/logs/psnr_logfile-6.txt'" -f null -
Input #0, matroska,webm, from 'G:\Аниме\Онгоинги\!_36_Осень_2024\DreamCast\Повелитель демонов 2099\[DC] Maou 2099 - 03_Telegram_HEVC.mkv':
  Metadata:
    COMPATIBLE_BRANDS: isomiso2avc1mp41
    MAJOR_BRAND     : isom
    MINOR_VERSION   : 512
    ENCODER         : Lavf61.7.100
  Duration: 00:23:46.65, start: -0.021000, bitrate: 1277 kb/s
  Stream #0:0: Video: hevc (Main 10), yuv420p10le(tv, bt709, progressive), 1920x1080 [SAR 1:1 DAR 16:9], 23.98 fps, 23.98 tbr, 1k tbn (default)
      Metadata:
        HANDLER_NAME    : VideoHandler
        VENDOR_ID       : [0][0][0][0]
        ENCODER         : Lavc61.19.100 libx265
        BPS             : 1080692
        DURATION        : 00:23:46.549708333
        NUMBER_OF_FRAMES: 34203
        NUMBER_OF_BYTES : 192707665
        _STATISTICS_WRITING_APP: mkvpropedit v66.0.0 ('Josie') 64-bit
        _STATISTICS_WRITING_DATE_UTC: 2025-06-02 14:41:04
        _STATISTICS_TAGS: BPS DURATION NUMBER_OF_FRAMES NUMBER_OF_BYTES
  Stream #0:1: Audio: aac (LC), 48000 Hz, stereo, fltp (default)
      Metadata:
        HANDLER_NAME    : SoundHandler
        VENDOR_ID       : [0][0][0][0]
        ENCODER         : Lavc61.19.100 aac
        BPS             : 192955
        DURATION        : 00:23:46.645000000
        NUMBER_OF_FRAMES: 66875
        NUMBER_OF_BYTES : 34409952
        _STATISTICS_WRITING_APP: mkvpropedit v66.0.0 ('Josie') 64-bit
        _STATISTICS_WRITING_DATE_UTC: 2025-06-02 14:41:04
        _STATISTICS_TAGS: BPS DURATION NUMBER_OF_FRAMES NUMBER_OF_BYTES
Input #1, mov,mp4,m4a,3gp,3g2,mj2, from 'G:\Аниме\Онгоинги\!_36_Осень_2024\DreamCast\Повелитель демонов 2099\[DC] Maou 2099 - 03_Telegram.mp4':
  Metadata:
    major_brand     : isom
    minor_version   : 512
    compatible_brands: isomiso2avc1mp41
    encoder         : Lavf61.1.100
  Duration: 00:23:46.62, start: 0.000000, bitrate: 2729 kb/s
  Stream #1:0[0x1](und): Video: h264 (High) (avc1 / 0x31637661), yuv420p(tv, bt709, progressive), 1920x1080 [SAR 1:1 DAR 16:9], 2581 kb/s, 23.98 fps, 23.98 tbr, 24k tbn (default)
      Metadata:
        handler_name    : VideoHandler
        vendor_id       : [0][0][0][0]
        encoder         : Lavc61.3.100 h264_qsv
  Stream #1:1[0x2](und): Audio: aac (HE-AACv2) (mp4a / 0x6134706D), 48000 Hz, stereo, fltp, 144 kb/s (default)
      Metadata:
        handler_name    : SoundHandler
        vendor_id       : [0][0][0][0]
Stream mapping:
  Stream #0:0 (hevc) -> settb:default
  Stream #1:0 (h264) -> settb:default
  psnr:default -> Stream #0:0 (wrapped_avframe)
  Stream #0:1 -> #0:1 (aac (native) -> pcm_s16le (native))
Output #0, null, to 'pipe:':
  Metadata:
    COMPATIBLE_BRANDS: isomiso2avc1mp41
    MAJOR_BRAND     : isom
    MINOR_VERSION   : 512
    encoder         : Lavf61.7.100
  Stream #0:0: Video: wrapped_avframe, yuv420p10le(tv, bt709, progressive), 1920x1080 [SAR 1:1 DAR 16:9], q=2-31, 200 kb/s, 23.98 fps, 23.98 tbn
      Metadata:
        encoder         : Lavc61.19.100 wrapped_avframe
  Stream #0:1: Audio: pcm_s16le, 48000 Hz, stereo, s16, 1536 kb/s (default)
      Metadata:
        HANDLER_NAME    : SoundHandler
        VENDOR_ID       : [0][0][0][0]
        _STATISTICS_TAGS: BPS DURATION NUMBER_OF_FRAMES NUMBER_OF_BYTES
        BPS             : 192955
        DURATION        : 00:23:46.645000000
        NUMBER_OF_FRAMES: 66875
        NUMBER_OF_BYTES : 34409952
        _STATISTICS_WRITING_APP: mkvpropedit v66.0.0 ('Josie') 64-bit
        _STATISTICS_WRITING_DATE_UTC: 2025-06-02 14:41:04
        encoder         : Lavc61.19.100 pcm_s16le
frame=  180 fps=0.0 q=-0.0 size=N/A time=00:00:07.50 bitrate=N/A speed=14.7x    frame=  456 fps=446 q=-0.0 size=N/A time=00:00:19.01 bitrate=N/A speed=18.6x    frame=  739 fps=477 q=-0.0 size=N/A time=00:00:30.82 bitrate=N/A speed=19.9x    frame= 1023 fps=496 q=-0.0 size=N/A time=00:00:42.66 bitrate=N/A speed=20.7x    frame= 1314 fps=511 q=-0.0 size=N/A time=00:00:54.80 bitrate=N/A speed=21.3x    frame= 1605 fps=518 q=-0.0 size=N/A time=00:01:06.94 bitrate=N/A speed=21.6x    frame= 1911 fps=527 q=-0.0 size=N/A time=00:01:19.70 bitrate=N/A speed=  22x    frame= 2191 fps=530 q=-0.0 size=N/A time=00:01:31.38 bitrate=N/A speed=22.1x    frame= 2465 fps=529 q=-0.0 size=N/A time=00:01:42.81 bitrate=N/A speed=22.1x    frame= 2601 fps=503 q=-0.0 size=N/A time=00:01:48.48 bitrate=N/A speed=  21x    frame= 2725 fps=479 q=-0.0 size=N/A time=00:01:53.65 bitrate=N/A speed=  20x    frame= 2909 fps=469 q=-0.0 size=N/A time=00:02:01.32 bitrate=N/A speed=19.6x    frame= 3087 fps=460 q=-0.0 size=N/A time=00:02:08.75 bitrate=N/A speed=19.2x    frame= 3263 fps=451 q=-0.0 size=N/A time=00:02:16.09 bitrate=N/A speed=18.8x    frame= 3456 fps=446 q=-0.0 size=N/A time=00:02:24.14 bitrate=N/A speed=18.6x    frame= 3665 fps=444 q=-0.0 size=N/A time=00:02:32.86 bitrate=N/A speed=18.5x    frame= 3832 fps=436 q=-0.0 size=N/A time=00:02:39.82 bitrate=N/A speed=18.2x    frame= 4003 fps=431 q=-0.0 size=N/A time=00:02:46.95 bitrate=N/A speed=  18x    frame= 4187 fps=426 q=-0.0 size=N/A time=00:02:54.63 bitrate=N/A speed=17.8x    frame= 4372 fps=423 q=-0.0 size=N/A time=00:03:02.34 bitrate=N/A speed=17.7x    frame= 4523 fps=417 q=-0.0 size=N/A time=00:03:08.64 bitrate=N/A speed=17.4x    frame= 4774 fps=420 q=-0.0 size=N/A time=00:03:19.11 bitrate=N/A speed=17.5x    frame= 5036 fps=424 q=-0.0 size=N/A time=00:03:30.04 bitrate=N/A speed=17.7x    frame= 5237 fps=422 q=-0.0 size=N/A time=00:03:38.42 bitrate=N/A speed=17.6x    frame= 5486 fps=425 q=-0.0 size=N/A time=00:03:48.81 bitrate=N/A speed=17.7x    frame= 5763 fps=430 q=-0.0 size=N/A time=00:04:00.36 bitrate=N/A speed=17.9x    frame= 6039 fps=433 q=-0.0 size=N/A time=00:04:11.87 bitrate=N/A speed=18.1x    frame= 6320 fps=437 q=-0.0 size=N/A time=00:04:23.59 bitrate=N/A speed=18.2x    frame= 6616 fps=442 q=-0.0 size=N/A time=00:04:35.94 bitrate=N/A speed=18.4x    frame= 6900 fps=446 q=-0.0 size=N/A time=00:04:47.78 bitrate=N/A speed=18.6x    frame= 7154 fps=447 q=-0.0 size=N/A time=00:04:58.38 bitrate=N/A speed=18.6x    frame= 7419 fps=449 q=-0.0 size=N/A time=00:05:09.43 bitrate=N/A speed=18.7x    frame= 7697 fps=452 q=-0.0 size=N/A time=00:05:21.02 bitrate=N/A speed=18.8x    frame= 7951 fps=453 q=-0.0 size=N/A time=00:05:31.62 bitrate=N/A speed=18.9x    frame= 8204 fps=454 q=-0.0 size=N/A time=00:05:42.17 bitrate=N/A speed=18.9x    frame= 8437 fps=454 q=-0.0 size=N/A time=00:05:51.89 bitrate=N/A speed=18.9x    frame= 8690 fps=455 q=-0.0 size=N/A time=00:06:02.44 bitrate=N/A speed=  19x    frame= 8938 fps=456 q=-0.0 size=N/A time=00:06:12.78 bitrate=N/A speed=  19x    frame= 9207 fps=457 q=-0.0 size=N/A time=00:06:24.00 bitrate=N/A speed=19.1x    frame= 9469 fps=459 q=-0.0 size=N/A time=00:06:34.93 bitrate=N/A speed=19.1x    frame= 9753 fps=461 q=-0.0 size=N/A time=00:06:46.78 bitrate=N/A speed=19.2x    frame=10021 fps=462 q=-0.0 size=N/A time=00:06:57.95 bitrate=N/A speed=19.3x    frame=10292 fps=464 q=-0.0 size=N/A time=00:07:09.26 bitrate=N/A speed=19.3x    frame=10576 fps=466 q=-0.0 size=N/A time=00:07:21.10 bitrate=N/A speed=19.4x    frame=10855 fps=468 q=-0.0 size=N/A time=00:07:32.74 bitrate=N/A speed=19.5x    frame=11126 fps=469 q=-0.0 size=N/A time=00:07:44.04 bitrate=N/A speed=19.5x    frame=11403 fps=470 q=-0.0 size=N/A time=00:07:55.60 bitrate=N/A speed=19.6x    frame=11685 fps=472 q=-0.0 size=N/A time=00:08:07.36 bitrate=N/A speed=19.7x    frame=11945 fps=472 q=-0.0 size=N/A time=00:08:18.20 bitrate=N/A speed=19.7x    frame=12211 fps=473 q=-0.0 size=N/A time=00:08:29.30 bitrate=N/A speed=19.7x    frame=12502 fps=475 q=-0.0 size=N/A time=00:08:41.43 bitrate=N/A speed=19.8x    frame=12748 fps=475 q=-0.0 size=N/A time=00:08:51.69 bitrate=N/A speed=19.8x    frame=13030 fps=476 q=-0.0 size=N/A time=00:09:03.45 bitrate=N/A speed=19.9x    frame=13273 fps=476 q=-0.0 size=N/A time=00:09:13.59 bitrate=N/A speed=19.9x    frame=13547 fps=477 q=-0.0 size=N/A time=00:09:25.02 bitrate=N/A speed=19.9x    frame=13738 fps=476 q=-0.0 size=N/A time=00:09:32.98 bitrate=N/A speed=19.8x    frame=13947 fps=474 q=-0.0 size=N/A time=00:09:41.70 bitrate=N/A speed=19.8x    frame=14198 fps=475 q=-0.0 size=N/A time=00:09:52.17 bitrate=N/A speed=19.8x    frame=14459 fps=475 q=-0.0 size=N/A time=00:10:03.06 bitrate=N/A speed=19.8x    frame=14724 fps=476 q=-0.0 size=N/A time=00:10:14.11 bitrate=N/A speed=19.8x    frame=15002 fps=477 q=-0.0 size=N/A time=00:10:25.70 bitrate=N/A speed=19.9x    frame=15271 fps=477 q=-0.0 size=N/A time=00:10:36.92 bitrate=N/A speed=19.9x    frame=15453 fps=476 q=-0.0 size=N/A time=00:10:44.51 bitrate=N/A speed=19.8x    frame=15701 fps=476 q=-0.0 size=N/A time=00:10:54.86 bitrate=N/A speed=19.8x    frame=15972 fps=476 q=-0.0 size=N/A time=00:11:06.16 bitrate=N/A speed=19.9x    frame=16261 fps=478 q=-0.0 size=N/A time=00:11:18.21 bitrate=N/A speed=19.9x    frame=16493 fps=477 q=-0.0 size=N/A time=00:11:27.89 bitrate=N/A speed=19.9x    frame=16789 fps=479 q=-0.0 size=N/A time=00:11:40.24 bitrate=N/A speed=  20x    frame=17037 fps=479 q=-0.0 size=N/A time=00:11:50.58 bitrate=N/A speed=  20x    frame=17309 fps=479 q=-0.0 size=N/A time=00:12:01.92 bitrate=N/A speed=  20x    frame=17572 fps=480 q=-0.0 size=N/A time=00:12:12.89 bitrate=N/A speed=  20x    frame=17823 fps=480 q=-0.0 size=N/A time=00:12:23.36 bitrate=N/A speed=  20x    frame=18095 fps=481 q=-0.0 size=N/A time=00:12:34.71 bitrate=N/A speed=  20x    frame=18366 fps=481 q=-0.0 size=N/A time=00:12:46.01 bitrate=N/A speed=20.1x    frame=18618 fps=481 q=-0.0 size=N/A time=00:12:56.52 bitrate=N/A speed=20.1x    frame=18892 fps=482 q=-0.0 size=N/A time=00:13:07.95 bitrate=N/A speed=20.1x    frame=19154 fps=482 q=-0.0 size=N/A time=00:13:18.88 bitrate=N/A speed=20.1x    frame=19399 fps=482 q=-0.0 size=N/A time=00:13:29.09 bitrate=N/A speed=20.1x    frame=19636 fps=482 q=-0.0 size=N/A time=00:13:38.98 bitrate=N/A speed=20.1x    frame=19898 fps=482 q=-0.0 size=N/A time=00:13:49.91 bitrate=N/A speed=20.1x    frame=20117 fps=482 q=-0.0 size=N/A time=00:13:59.04 bitrate=N/A speed=20.1x    frame=20389 fps=482 q=-0.0 size=N/A time=00:14:10.39 bitrate=N/A speed=20.1x    frame=20664 fps=483 q=-0.0 size=N/A time=00:14:21.86 bitrate=N/A speed=20.1x    frame=20924 fps=483 q=-0.0 size=N/A time=00:14:32.70 bitrate=N/A speed=20.1x    frame=21201 fps=484 q=-0.0 size=N/A time=00:14:44.25 bitrate=N/A speed=20.2x    frame=21478 fps=484 q=-0.0 size=N/A time=00:14:55.81 bitrate=N/A speed=20.2x    frame=21753 fps=485 q=-0.0 size=N/A time=00:15:07.28 bitrate=N/A speed=20.2x    frame=22027 fps=485 q=-0.0 size=N/A time=00:15:18.70 bitrate=N/A speed=20.2x    frame=22308 fps=486 q=-0.0 size=N/A time=00:15:30.42 bitrate=N/A speed=20.3x    frame=22583 fps=487 q=-0.0 size=N/A time=00:15:41.89 bitrate=N/A speed=20.3x    frame=22880 fps=487 q=-0.0 size=N/A time=00:15:54.28 bitrate=N/A speed=20.3x    frame=23148 fps=488 q=-0.0 size=N/A time=00:16:05.46 bitrate=N/A speed=20.3x    frame=23424 fps=488 q=-0.0 size=N/A time=00:16:16.97 bitrate=N/A speed=20.4x    frame=23672 fps=488 q=-0.0 size=N/A time=00:16:27.31 bitrate=N/A speed=20.4x    frame=23915 fps=488 q=-0.0 size=N/A time=00:16:37.45 bitrate=N/A speed=20.3x    frame=24140 fps=487 q=-0.0 size=N/A time=00:16:46.83 bitrate=N/A speed=20.3x    frame=24409 fps=488 q=-0.0 size=N/A time=00:16:58.05 bitrate=N/A speed=20.3x    frame=24689 fps=488 q=-0.0 size=N/A time=00:17:09.73 bitrate=N/A speed=20.4x    frame=24940 fps=488 q=-0.0 size=N/A time=00:17:20.20 bitrate=N/A speed=20.4x    frame=25210 fps=489 q=-0.0 size=N/A time=00:17:31.46 bitrate=N/A speed=20.4x    frame=25466 fps=489 q=-0.0 size=N/A time=00:17:42.14 bitrate=N/A speed=20.4x    frame=25721 fps=489 q=-0.0 size=N/A time=00:17:52.78 bitrate=N/A speed=20.4x    frame=25974 fps=489 q=-0.0 size=N/A time=00:18:03.33 bitrate=N/A speed=20.4x    frame=26227 fps=489 q=-0.0 size=N/A time=00:18:13.88 bitrate=N/A speed=20.4x    frame=26469 fps=489 q=-0.0 size=N/A time=00:18:23.97 bitrate=N/A speed=20.4x    frame=26731 fps=489 q=-0.0 size=N/A time=00:18:34.90 bitrate=N/A speed=20.4x    frame=27011 fps=489 q=-0.0 size=N/A time=00:18:46.58 bitrate=N/A speed=20.4x    frame=27230 fps=489 q=-0.0 size=N/A time=00:18:55.71 bitrate=N/A speed=20.4x    frame=27500 fps=489 q=-0.0 size=N/A time=00:19:06.97 bitrate=N/A speed=20.4x    frame=27771 fps=489 q=-0.0 size=N/A time=00:19:18.28 bitrate=N/A speed=20.4x    frame=28041 fps=490 q=-0.0 size=N/A time=00:19:29.54 bitrate=N/A speed=20.4x    frame=28291 fps=490 q=-0.0 size=N/A time=00:19:39.97 bitrate=N/A speed=20.4x    frame=28547 fps=490 q=-0.0 size=N/A time=00:19:50.64 bitrate=N/A speed=20.4x    frame=28792 fps=490 q=-0.0 size=N/A time=00:20:00.86 bitrate=N/A speed=20.4x    frame=29020 fps=489 q=-0.0 size=N/A time=00:20:10.37 bitrate=N/A speed=20.4x    frame=29263 fps=489 q=-0.0 size=N/A time=00:20:20.51 bitrate=N/A speed=20.4x    frame=29519 fps=489 q=-0.0 size=N/A time=00:20:31.18 bitrate=N/A speed=20.4x    frame=29773 fps=489 q=-0.0 size=N/A time=00:20:41.78 bitrate=N/A speed=20.4x    frame=30046 fps=489 q=-0.0 size=N/A time=00:20:53.16 bitrate=N/A speed=20.4x    frame=30298 fps=489 q=-0.0 size=N/A time=00:21:03.67 bitrate=N/A speed=20.4x    frame=30574 fps=490 q=-0.0 size=N/A time=00:21:15.19 bitrate=N/A speed=20.4x    frame=30853 fps=490 q=-0.0 size=N/A time=00:21:26.82 bitrate=N/A speed=20.4x    frame=31063 fps=490 q=-0.0 size=N/A time=00:21:35.58 bitrate=N/A speed=20.4x    frame=31286 fps=489 q=-0.0 size=N/A time=00:21:44.88 bitrate=N/A speed=20.4x    frame=31525 fps=489 q=-0.0 size=N/A time=00:21:54.85 bitrate=N/A speed=20.4x    frame=31776 fps=489 q=-0.0 size=N/A time=00:22:05.32 bitrate=N/A speed=20.4x    frame=32042 fps=489 q=-0.0 size=N/A time=00:22:16.41 bitrate=N/A speed=20.4x    frame=32298 fps=489 q=-0.0 size=N/A time=00:22:27.09 bitrate=N/A speed=20.4x    frame=32536 fps=489 q=-0.0 size=N/A time=00:22:37.02 bitrate=N/A speed=20.4x    frame=32744 fps=488 q=-0.0 size=N/A time=00:22:45.69 bitrate=N/A speed=20.4x    frame=32921 fps=487 q=-0.0 size=N/A time=00:22:53.08 bitrate=N/A speed=20.3x    frame=33084 fps=486 q=-0.0 size=N/A time=00:22:59.87 bitrate=N/A speed=20.3x    frame=33209 fps=484 q=-0.0 size=N/A time=00:23:05.09 bitrate=N/A speed=20.2x    frame=33317 fps=482 q=-0.0 size=N/A time=00:23:09.59 bitrate=N/A speed=20.1x    frame=33413 fps=480 q=-0.0 size=N/A time=00:23:13.60 bitrate=N/A speed=  20x    frame=33517 fps=478 q=-0.0 size=N/A time=00:23:17.93 bitrate=N/A speed=19.9x    frame=33613 fps=476 q=-0.0 size=N/A time=00:23:21.94 bitrate=N/A speed=19.8x    frame=33713 fps=474 q=-0.0 size=N/A time=00:23:26.11 bitrate=N/A speed=19.8x    frame=33929 fps=473 q=-0.0 size=N/A time=00:23:35.12 bitrate=N/A speed=19.7x    frame=34197 fps=474 q=-0.0 size=N/A time=00:23:46.29 bitrate=N/A speed=19.7x    [Parsed_psnr_10 @ 000001fcdaf16880] PSNR y:48.211850 u:51.224163 v:51.027465 average:48.983997 min:29.199663 max:inf
[out#0/null @ 000001fcce104500] video:14697KiB audio:267500KiB subtitle:0KiB other streams:0KiB global headers:0KiB muxing overhead: unknown
frame=34203 fps=474 q=-0.0 Lsize=N/A time=00:23:46.55 bitrate=N/A speed=19.8x    
